# xmcd
#
# Track frame offsets:
#	150
#	10087
#	22170
#	32635
#	46112
#	60425
#	70920
#	87287
#	101817
#	127407
#
# Disc length: 1882
#
# Revision: 2
# Processed by: cddbd v1.5.1PL0 Copyright (c) Steve Scherf et al.
# Submitted via: CDex 1.40Beta8
# Normalized: r0:TDELIM( - ),TSWAP
#
DISCID=8307580a
DTITLE=Various Artist - Christmas In The Country
DYEAR=1995
DGENRE=Country
TTITLE0=John Schneider - Joy To The World
TTITLE1=Dwight Yoakam - Santa Clause Is Back In Town
TTITLE2=Tanya Tucker - Away In The Manger
TTITLE3=Loretta Lynn - The First Noel
TTITLE4=Ricky Van Shelton - What Child Is This
TTITLE5=George Jones - Jingle Bells
TTITLE6=Rickey Van Shelton - It Wasn't His Child
TTITLE7=Barbara Mandrell - It Must Have Been The Mistletoe
TTITLE8=Steve Wariner - Christmas Medley
TTITLE9=Lee Greenwood - O Holy Night
EXTD=YEAR: 1995 ID3G: 2
EXTT0=
EXTT1=
EXTT2=
EXTT3=
EXTT4=
EXTT5=
EXTT6=
EXTT7=
EXTT8=
EXTT9=
PLAYORDER=
